<svg width="26" height="26" viewBox="0 0 26 26" fill="none" xmlns="http://www.w3.org/2000/svg">
<g clip-path="url(#clip0_0_35)">
<path d="M22.7088 19.9738C22.3314 20.8693 21.8847 21.6935 21.3671 22.4513C20.6616 23.4844 20.084 24.1995 19.6388 24.5966C18.9487 25.2484 18.2093 25.5822 17.4175 25.6012C16.8491 25.6012 16.1636 25.4351 15.3657 25.0981C14.5651 24.7627 13.8294 24.5966 13.1567 24.5966C12.4512 24.5966 11.6946 24.7627 10.8852 25.0981C10.0747 25.4351 9.42168 25.6107 8.92243 25.6281C8.16317 25.6613 7.40636 25.318 6.65094 24.5966C6.16879 24.1647 5.56572 23.4243 4.84327 22.3754C4.06813 21.2553 3.43086 19.9564 2.93162 18.4756C2.39694 16.8762 2.12891 15.3274 2.12891 13.8279C2.12891 12.1103 2.49029 10.6288 3.21413 9.38739C3.783 8.39023 4.53981 7.60363 5.48701 7.02619C6.43421 6.44874 7.45766 6.15448 8.55982 6.13565C9.16289 6.13565 9.95374 6.32724 10.9365 6.70377C11.9165 7.08156 12.5458 7.27314 12.8217 7.27314C13.0279 7.27314 13.727 7.04913 14.912 6.60251C16.0327 6.18833 16.9785 6.01684 17.7533 6.08439C19.8529 6.25842 21.4303 7.10845 22.4793 8.63988C20.6015 9.80838 19.6727 11.445 19.6912 13.5445C19.7081 15.1799 20.2858 16.5408 21.421 17.6213C21.9355 18.1228 22.5101 18.5104 23.1494 18.7857C23.0107 19.1986 22.8644 19.5941 22.7088 19.9738ZM17.8935 0.51305C17.8935 1.79484 17.4375 2.99165 16.5287 4.0994C15.4319 5.41629 14.1053 6.17726 12.6667 6.05718C12.6484 5.90341 12.6378 5.74156 12.6378 5.57149C12.6378 4.34097 13.1593 3.02408 14.0856 1.94734C14.548 1.40216 15.1362 0.948857 15.8494 0.587248C16.561 0.231034 17.2342 0.0340396 17.8673 0.000305176C17.8858 0.171661 17.8935 0.343027 17.8935 0.513034V0.51305Z" fill="black"/>
</g>
<defs>
<clipPath id="clip0_0_35">
<rect width="24.9555" height="25.63" fill="white" transform="translate(0.0488281)"/>
</clipPath>
</defs>
</svg>
