<svg width="149" height="46" viewBox="0 0 149 46" fill="none" xmlns="http://www.w3.org/2000/svg">
<path d="M30.7967 32.4105C29.6821 32.4105 28.7436 31.5012 28.7436 30.3573V23.7579L22.5841 17.4811L16.4247 23.7579V30.3573C16.4247 31.4719 15.5154 32.4105 14.3715 32.4105C13.2569 32.4105 12.3184 31.5012 12.3184 30.3573V23.2299C12.3184 22.4967 12.6117 21.8221 13.1103 21.2941L20.6483 13.6095C21.1762 13.0815 21.8802 12.7882 22.5841 12.7882C23.3174 12.7882 23.992 13.0815 24.5199 13.6095L32.0579 21.2941C32.5565 21.8221 32.8499 22.4967 32.8499 23.2299V30.3573C32.8499 31.4719 31.9406 32.4105 30.7967 32.4105Z" fill="black"/>
<path d="M34.4929 45.1986H10.7057C4.81024 45.1986 0 40.3884 0 34.4929V10.7057C0 4.81024 4.81024 0 10.7057 0H34.5222C40.4177 0 45.228 4.81024 45.228 10.7057V34.5222C45.1986 40.3884 40.3884 45.1986 34.4929 45.1986ZM10.7057 4.07697C7.0687 4.07697 4.1063 7.03937 4.1063 10.6764V34.4929C4.1063 38.1299 7.0687 41.0923 10.7057 41.0923H34.5222C38.1593 41.0923 41.1217 38.1299 41.1217 34.4929V10.7057C41.1217 7.0687 38.1593 4.1063 34.5222 4.1063H10.7057V4.07697Z" fill="black"/>
<path d="M64.5277 30.0933L63.5891 27.6589H55.7284L54.7899 30.152C54.4379 31.1199 54.1153 31.7652 53.8513 32.1171C53.5873 32.4691 53.1767 32.6158 52.5901 32.6158C52.0914 32.6158 51.6515 32.4398 51.2702 32.0878C50.8889 31.7358 50.7129 31.3252 50.7129 30.8559C50.7129 30.5919 50.7422 30.328 50.8302 30.0347C50.9182 29.7414 51.0649 29.3601 51.2702 28.8614L56.2271 16.2786C56.3737 15.9266 56.5497 15.4866 56.7257 14.988C56.931 14.4894 57.1363 14.0494 57.371 13.7268C57.6056 13.4041 57.8989 13.1108 58.2509 12.9055C58.6029 12.7002 59.0721 12.5829 59.6001 12.5829C60.1574 12.5829 60.5973 12.7002 60.9786 12.9055C61.3306 13.1108 61.6532 13.3748 61.8586 13.6975C62.0932 14.0201 62.2692 14.3721 62.4158 14.7534C62.5625 15.1347 62.7678 15.6333 63.0025 16.2492L68.0473 28.7441C68.458 29.6827 68.6339 30.3866 68.6339 30.8266C68.6339 31.2666 68.458 31.6772 68.0767 32.0585C67.6954 32.4398 67.2554 32.6158 66.7275 32.6158C66.4341 32.6158 66.1408 32.5571 65.9355 32.4398C65.7009 32.3225 65.5249 32.1758 65.3782 31.9998C65.2316 31.8238 65.0556 31.5305 64.9089 31.1199C64.7916 30.7386 64.645 30.3866 64.5277 30.0933ZM56.755 24.7258H62.5332L59.6001 16.7478L56.755 24.7258Z" fill="black"/>
<path d="M76.846 23.9925H75.4674V30.2106C75.4674 31.0319 75.2914 31.6185 74.9395 32.0291C74.5875 32.4104 74.1182 32.6158 73.5316 32.6158C72.9157 32.6158 72.417 32.4104 72.0651 31.9998C71.7131 31.5892 71.5371 31.0026 71.5371 30.2106V15.3106C71.5371 14.46 71.7131 13.8441 72.0944 13.4628C72.4757 13.0815 73.0916 12.9055 73.9422 12.9055H80.307C81.1869 12.9055 81.9495 12.9348 82.5655 13.0228C83.1814 13.1108 83.7387 13.2575 84.2666 13.4921C84.8826 13.7561 85.4105 14.1081 85.8798 14.5774C86.3491 15.0467 86.7011 15.6039 86.9357 16.2199C87.1704 16.8358 87.2877 17.5104 87.2877 18.2144C87.2877 19.6516 86.8771 20.8248 86.0558 21.6754C85.2346 22.526 84.0027 23.1419 82.3601 23.5232C83.0641 23.9045 83.7094 24.4325 84.3546 25.1658C84.9999 25.899 85.5572 26.6616 86.0558 27.4829C86.5544 28.3041 86.9357 29.0374 87.229 29.6827C87.493 30.328 87.6397 30.7973 87.6397 31.0319C87.6397 31.2959 87.5517 31.5305 87.405 31.7945C87.229 32.0585 87.0237 32.2345 86.7304 32.3811C86.4371 32.5278 86.1145 32.5864 85.7625 32.5864C85.3225 32.5864 84.9412 32.4691 84.6479 32.2638C84.3546 32.0585 84.0907 31.7945 83.8853 31.4719C83.68 31.1492 83.3867 30.6799 83.0054 30.064L81.4216 27.4535C80.8643 26.4856 80.3657 25.7524 79.8964 25.2537C79.4564 24.7551 78.9871 24.4032 78.5472 24.2272C78.1365 24.0805 77.5499 23.9925 76.846 23.9925ZM79.1044 15.8679H75.4968V21.1768H79.0164C79.955 21.1768 80.747 21.0888 81.3922 20.9421C82.0375 20.7661 82.5361 20.5022 82.8588 20.1209C83.2107 19.7396 83.3574 19.1823 83.3574 18.5077C83.3574 17.9797 83.2107 17.5104 82.9468 17.0998C82.6828 16.6892 82.3015 16.3959 81.8029 16.1906C81.3629 15.9559 80.4536 15.8679 79.1044 15.8679Z" fill="black"/>
<path d="M107.174 26.163C107.174 26.779 107.028 27.4536 106.705 28.1575C106.412 28.8615 105.913 29.5654 105.268 30.2693C104.622 30.9733 103.772 31.5306 102.775 31.9412C101.748 32.3812 100.575 32.5865 99.2256 32.5865C98.1991 32.5865 97.2898 32.4985 96.4392 32.2932C95.5886 32.0878 94.8554 31.7945 94.1514 31.3839C93.4768 30.9733 92.8315 30.4453 92.2743 29.7707C91.7756 29.1548 91.3357 28.4802 90.9544 27.7176C90.6024 26.955 90.3091 26.163 90.1331 25.3124C89.9571 24.4619 89.8691 23.5526 89.8691 22.5847C89.8691 21.0302 90.1038 19.6223 90.5438 18.3904C90.9837 17.1585 91.6583 16.1026 92.4796 15.2227C93.3302 14.3428 94.3274 13.6682 95.442 13.2282C96.5859 12.7589 97.7884 12.5536 99.079 12.5536C100.634 12.5536 102.041 12.8762 103.273 13.4922C104.505 14.1081 105.444 14.9 106.089 15.8093C106.734 16.7185 107.057 17.5985 107.057 18.4197C107.057 18.8597 106.91 19.2703 106.588 19.6223C106.265 19.9743 105.884 20.1502 105.444 20.1502C104.945 20.1502 104.564 20.0329 104.329 19.7983C104.124 19.5636 103.831 19.153 103.537 18.5664C103.039 17.5985 102.423 16.8945 101.719 16.4252C101.015 15.956 100.164 15.7213 99.167 15.7213C97.5538 15.7213 96.2632 16.3372 95.3247 17.5691C94.3567 18.801 93.8874 20.5315 93.8874 22.79C93.8874 24.2859 94.0928 25.5471 94.5327 26.5443C94.9434 27.5416 95.5593 28.2749 96.3219 28.7735C97.0845 29.2721 97.9938 29.5067 99.0497 29.5067C100.164 29.5067 101.132 29.2134 101.895 28.6562C102.687 28.0989 103.273 27.2776 103.655 26.1924C103.831 25.6937 104.036 25.2538 104.271 24.9311C104.505 24.6085 104.916 24.4619 105.444 24.4619C105.913 24.4619 106.324 24.6378 106.646 24.9605C107.028 25.2831 107.174 25.6937 107.174 26.163Z" fill="black"/>
<path d="M114.536 14.9587V29.0374H122.484C123.13 29.0374 123.599 29.1841 123.951 29.5067C124.303 29.8293 124.45 30.2106 124.45 30.6799C124.45 31.1492 124.274 31.5305 123.951 31.8238C123.628 32.1171 123.13 32.2638 122.484 32.2638H113.011C112.16 32.2638 111.544 32.0878 111.163 31.7065C110.781 31.3252 110.605 30.7093 110.605 29.8587V14.9587C110.605 14.1667 110.781 13.5801 111.133 13.1695C111.485 12.7589 111.955 12.5829 112.541 12.5829C113.128 12.5829 113.597 12.7882 113.979 13.1695C114.36 13.5801 114.536 14.1667 114.536 14.9587Z" fill="black"/>
<path d="M127.207 30.2106V14.9587C127.207 14.1667 127.383 13.5801 127.735 13.1695C128.087 12.7589 128.556 12.5829 129.143 12.5829C129.729 12.5829 130.199 12.7882 130.58 13.1695C130.932 13.5508 131.137 14.1667 131.137 14.9587V30.2106C131.137 31.0026 130.961 31.6185 130.58 31.9998C130.228 32.4104 129.729 32.5864 129.143 32.5864C128.586 32.5864 128.116 32.3811 127.764 31.9998C127.383 31.6185 127.207 31.0026 127.207 30.2106Z" fill="black"/>
<path d="M147.064 15.9559H139.35V20.9128H145.803C146.39 20.9128 146.859 21.0595 147.152 21.3234C147.445 21.5874 147.592 21.9394 147.592 22.4087C147.592 22.8486 147.445 23.2006 147.152 23.4646C146.859 23.7285 146.419 23.8752 145.832 23.8752H139.38V30.24C139.38 31.0612 139.204 31.6478 138.822 32.0291C138.47 32.4104 138.001 32.6158 137.414 32.6158C136.828 32.6158 136.358 32.4104 136.006 32.0291C135.655 31.6185 135.449 31.0319 135.449 30.24V15.3106C135.449 14.7534 135.537 14.2841 135.713 13.9321C135.889 13.5801 136.153 13.3161 136.505 13.1402C136.857 12.9642 137.326 12.9055 137.884 12.9055H147.123C147.739 12.9055 148.208 13.0522 148.531 13.3161C148.824 13.5801 149 13.9614 149 14.4014C149 14.8707 148.853 15.2226 148.531 15.516C148.179 15.8093 147.709 15.9559 147.064 15.9559Z" fill="black"/>
</svg>
