<svg width="36" height="36" viewBox="0 0 36 36" fill="none" xmlns="http://www.w3.org/2000/svg">
<path d="M31.7812 2.8125H30.0938V0H27.2812V2.8125H8.71875V0H5.90625V2.8125H4.21875C1.89253 2.8125 0 4.70503 0 7.03125V31.7812C0 34.1075 1.89253 36 4.21875 36H31.7812C34.1075 36 36 34.1075 36 31.7812V7.03125C36 4.70503 34.1075 2.8125 31.7812 2.8125ZM33.1875 31.7812C33.1875 32.5567 32.5567 33.1875 31.7812 33.1875H4.21875C3.44334 33.1875 2.8125 32.5567 2.8125 31.7812V13.2188H33.1875V31.7812ZM33.1875 10.4062H2.8125V7.03125C2.8125 6.25584 3.44334 5.625 4.21875 5.625H5.90625V8.4375H8.71875V5.625H27.2812V8.4375H30.0938V5.625H31.7812C32.5567 5.625 33.1875 6.25584 33.1875 7.03125V10.4062Z" fill="url(#paint0_linear_158_448)"/>
<path d="M8.15625 16.1719H5.34375V18.9844H8.15625V16.1719Z" fill="url(#paint1_linear_158_448)"/>
<path d="M13.7812 16.1719H10.9688V18.9844H13.7812V16.1719Z" fill="url(#paint2_linear_158_448)"/>
<path d="M19.4062 16.1719H16.5938V18.9844H19.4062V16.1719Z" fill="url(#paint3_linear_158_448)"/>
<path d="M25.0312 16.1719H22.2188V18.9844H25.0312V16.1719Z" fill="url(#paint4_linear_158_448)"/>
<path d="M30.6562 16.1719H27.8438V18.9844H30.6562V16.1719Z" fill="url(#paint5_linear_158_448)"/>
<path d="M8.15625 21.7969H5.34375V24.6094H8.15625V21.7969Z" fill="url(#paint6_linear_158_448)"/>
<path d="M13.7812 21.7969H10.9688V24.6094H13.7812V21.7969Z" fill="url(#paint7_linear_158_448)"/>
<path d="M19.4062 21.7969H16.5938V24.6094H19.4062V21.7969Z" fill="url(#paint8_linear_158_448)"/>
<path d="M25.0312 21.7969H22.2188V24.6094H25.0312V21.7969Z" fill="url(#paint9_linear_158_448)"/>
<path d="M8.15625 27.4219H5.34375V30.2344H8.15625V27.4219Z" fill="url(#paint10_linear_158_448)"/>
<path d="M13.7812 27.4219H10.9688V30.2344H13.7812V27.4219Z" fill="url(#paint11_linear_158_448)"/>
<path d="M19.4062 27.4219H16.5938V30.2344H19.4062V27.4219Z" fill="url(#paint12_linear_158_448)"/>
<path d="M25.0312 27.4219H22.2188V30.2344H25.0312V27.4219Z" fill="url(#paint13_linear_158_448)"/>
<path d="M30.6562 21.7969H27.8438V24.6094H30.6562V21.7969Z" fill="url(#paint14_linear_158_448)"/>
<defs>
<linearGradient id="paint0_linear_158_448" x1="0" y1="0" x2="36" y2="0" gradientUnits="userSpaceOnUse">
<stop stop-color="#0056D7"/>
<stop offset="1" stop-color="#4E95FF"/>
</linearGradient>
<linearGradient id="paint1_linear_158_448" x1="5.34375" y1="16.1719" x2="8.15625" y2="16.1719" gradientUnits="userSpaceOnUse">
<stop stop-color="#0056D7"/>
<stop offset="1" stop-color="#4E95FF"/>
</linearGradient>
<linearGradient id="paint2_linear_158_448" x1="10.9688" y1="16.1719" x2="13.7812" y2="16.1719" gradientUnits="userSpaceOnUse">
<stop stop-color="#0056D7"/>
<stop offset="1" stop-color="#4E95FF"/>
</linearGradient>
<linearGradient id="paint3_linear_158_448" x1="16.5938" y1="16.1719" x2="19.4062" y2="16.1719" gradientUnits="userSpaceOnUse">
<stop stop-color="#0056D7"/>
<stop offset="1" stop-color="#4E95FF"/>
</linearGradient>
<linearGradient id="paint4_linear_158_448" x1="22.2188" y1="16.1719" x2="25.0312" y2="16.1719" gradientUnits="userSpaceOnUse">
<stop stop-color="#0056D7"/>
<stop offset="1" stop-color="#4E95FF"/>
</linearGradient>
<linearGradient id="paint5_linear_158_448" x1="27.8438" y1="16.1719" x2="30.6562" y2="16.1719" gradientUnits="userSpaceOnUse">
<stop stop-color="#0056D7"/>
<stop offset="1" stop-color="#4E95FF"/>
</linearGradient>
<linearGradient id="paint6_linear_158_448" x1="5.34375" y1="21.7969" x2="8.15625" y2="21.7969" gradientUnits="userSpaceOnUse">
<stop stop-color="#0056D7"/>
<stop offset="1" stop-color="#4E95FF"/>
</linearGradient>
<linearGradient id="paint7_linear_158_448" x1="10.9688" y1="21.7969" x2="13.7812" y2="21.7969" gradientUnits="userSpaceOnUse">
<stop stop-color="#0056D7"/>
<stop offset="1" stop-color="#4E95FF"/>
</linearGradient>
<linearGradient id="paint8_linear_158_448" x1="16.5938" y1="21.7969" x2="19.4062" y2="21.7969" gradientUnits="userSpaceOnUse">
<stop stop-color="#0056D7"/>
<stop offset="1" stop-color="#4E95FF"/>
</linearGradient>
<linearGradient id="paint9_linear_158_448" x1="22.2188" y1="21.7969" x2="25.0312" y2="21.7969" gradientUnits="userSpaceOnUse">
<stop stop-color="#0056D7"/>
<stop offset="1" stop-color="#4E95FF"/>
</linearGradient>
<linearGradient id="paint10_linear_158_448" x1="5.34375" y1="27.4219" x2="8.15625" y2="27.4219" gradientUnits="userSpaceOnUse">
<stop stop-color="#0056D7"/>
<stop offset="1" stop-color="#4E95FF"/>
</linearGradient>
<linearGradient id="paint11_linear_158_448" x1="10.9688" y1="27.4219" x2="13.7812" y2="27.4219" gradientUnits="userSpaceOnUse">
<stop stop-color="#0056D7"/>
<stop offset="1" stop-color="#4E95FF"/>
</linearGradient>
<linearGradient id="paint12_linear_158_448" x1="16.5938" y1="27.4219" x2="19.4062" y2="27.4219" gradientUnits="userSpaceOnUse">
<stop stop-color="#0056D7"/>
<stop offset="1" stop-color="#4E95FF"/>
</linearGradient>
<linearGradient id="paint13_linear_158_448" x1="22.2188" y1="27.4219" x2="25.0312" y2="27.4219" gradientUnits="userSpaceOnUse">
<stop stop-color="#0056D7"/>
<stop offset="1" stop-color="#4E95FF"/>
</linearGradient>
<linearGradient id="paint14_linear_158_448" x1="27.8438" y1="21.7969" x2="30.6562" y2="21.7969" gradientUnits="userSpaceOnUse">
<stop stop-color="#0056D7"/>
<stop offset="1" stop-color="#4E95FF"/>
</linearGradient>
</defs>
</svg>
