<svg width="24" height="24" viewBox="0 0 24 24" fill="none" xmlns="http://www.w3.org/2000/svg">
<path d="M12 0C5.36442 0 0 5.36442 0 12C0 18.6356 5.36442 24 12 24C18.6356 24 24 18.6356 24 12C24 5.36442 18.6356 0 12 0ZM8.37791 1.63436C7.74478 2.5227 7.20491 3.46012 6.75337 4.44172H4.02945C5.21718 3.18528 6.70429 2.2135 8.37791 1.63436ZM3.17055 5.46258H6.32147C5.58037 7.37178 5.17301 9.40859 5.11411 11.4896H1.03558C1.13865 9.23681 1.91411 7.16074 3.17055 5.46258ZM3.17055 18.5374C1.91411 16.8393 1.13865 14.7632 1.03558 12.5104H5.11411C5.17301 14.5914 5.59509 16.6282 6.3411 18.5374H3.17055ZM4.02945 19.5583H6.77791C7.23436 20.5399 7.77423 21.4871 8.39755 22.3755C6.71902 21.7963 5.22209 20.8196 4.02945 19.5583ZM11.4896 22.9693C10.9791 22.9448 10.4736 22.8859 9.98282 22.7975C9.1681 21.7914 8.47117 20.7067 7.90675 19.5632H11.4896V22.9693ZM11.4896 18.5374H7.44049C6.65031 16.6331 6.19877 14.5963 6.13497 12.5104H11.4896V18.5374ZM11.4896 11.4896H6.13497C6.19877 9.40859 6.6454 7.36687 7.43067 5.46258H11.4896V11.4896ZM11.4945 4.44172H11.4896H7.89693C8.46626 3.28834 9.16319 2.20368 9.98282 1.20736C10.4736 1.11411 10.9791 1.06012 11.4945 1.03558V4.44172ZM20.8294 5.46258C22.0859 7.16074 22.8663 9.2319 22.9644 11.4896H18.8859C18.827 9.40859 18.4049 7.37178 17.6589 5.46258H20.8294ZM19.9706 4.44172H17.2221C16.7656 3.46012 16.2258 2.51288 15.5975 1.62454C17.281 2.20368 18.7779 3.18037 19.9706 4.44172ZM12.5104 1.03558C13.0209 1.06012 13.5264 1.11902 14.0172 1.20736C14.8319 2.2135 15.5288 3.29816 16.0933 4.44172H12.5104V1.03558ZM12.5104 5.46258H16.5595C17.3497 7.36196 17.8012 9.40368 17.865 11.4896H12.5104V5.46258ZM12.5104 12.5104H17.865C17.8012 14.5914 17.3546 16.6331 16.5693 18.5374H12.5104V12.5104ZM12.5055 22.9644V19.5583H12.5104H16.1031C15.5337 20.7117 14.8368 21.7963 14.0172 22.7926C13.5264 22.8859 13.0209 22.9399 12.5055 22.9644ZM15.5975 22.3755C16.2209 21.4871 16.7607 20.5399 17.2123 19.5583H19.9755C18.7779 20.8196 17.281 21.7963 15.5975 22.3755ZM17.6442 18.5374C18.3804 16.6282 18.7975 14.5914 18.881 12.5104H22.9693C22.8663 14.7632 22.0908 16.8393 20.8344 18.5374H17.6442Z" fill="black"/>
</svg>
