<svg width="25" height="26" viewBox="0 0 25 26" fill="none" xmlns="http://www.w3.org/2000/svg">
<g clip-path="url(#clip0_0_33)">
<path fill-rule="evenodd" clip-rule="evenodd" d="M17.5143 6.99251C16.226 5.73055 14.5067 5.04307 12.7277 5.07132C9.47248 5.07132 6.70781 7.32681 5.72205 10.364C5.19938 11.9555 5.19938 13.679 5.72205 15.2706H5.72662C6.71696 18.303 9.47705 20.5586 12.7323 20.5586C14.4127 20.5586 15.8553 20.1171 16.9734 19.3375V19.3343C18.2892 18.4396 19.1879 17.0317 19.4675 15.4401H12.7277V10.5053H24.4972C24.6439 11.3623 24.7126 12.2381 24.7126 13.1093C24.7126 17.007 23.3563 20.3024 20.9964 22.5343L20.9989 22.5362C18.9311 24.4951 16.093 25.6299 12.7277 25.6299C8.00989 25.6299 3.69552 22.8988 1.57731 18.5714C-0.192441 14.9504 -0.192436 10.6842 1.57732 7.06317C3.69554 2.73108 8.00989 -5.19408e-05 12.7277 -5.19408e-05C15.8271 -0.0377223 18.821 1.15831 21.0768 3.33377L17.5143 6.99251Z" fill="black"/>
</g>
<defs>
<clipPath id="clip0_0_33">
<rect width="24.9555" height="25.63" fill="white"/>
</clipPath>
</defs>
</svg>
