<svg width="23" height="24" viewBox="0 0 23 24" fill="none" xmlns="http://www.w3.org/2000/svg">
<path d="M20.6056 9.92084H20.5462V8.46538C20.5462 3.79009 16.7562 0 12.0808 0C7.40546 0 3.61543 3.79009 3.61543 8.46538V9.92084H3.25902C1.95207 9.92084 0.942178 11.0792 0.942178 12.4159V16.1288C0.90926 17.4243 1.93285 18.5012 3.22837 18.5342C3.23861 18.5344 3.24879 18.5346 3.25902 18.5347H5.45704C5.76837 18.5201 6.00891 18.2558 5.99424 17.9445C5.99373 17.9333 5.99288 17.9221 5.99169 17.9109V10.6337C5.99169 10.2773 5.78377 9.92078 5.45704 9.92078H4.80356V8.46533C4.80356 4.44623 8.06172 1.18807 12.0808 1.18807C16.0999 1.18807 19.3581 4.44623 19.3581 8.46533V9.92078H18.7046C18.3779 9.92078 18.17 10.2772 18.17 10.6337V17.9109C18.1368 18.2208 18.3612 18.499 18.6711 18.5321C18.6822 18.5333 18.6934 18.5342 18.7046 18.5347H19.3878L19.3283 18.6238C18.437 19.8083 17.0385 20.5021 15.5561 20.495C15.2315 18.9038 13.6784 17.8768 12.0871 18.2014C10.7263 18.4789 9.74522 19.6707 9.73424 21.0594C9.7505 22.6883 11.0756 24.0001 12.7046 24C13.5109 23.9869 14.2795 23.656 14.8432 23.0792C15.2235 22.6898 15.4726 22.1913 15.5561 21.6534C17.4124 21.6605 19.1631 20.7906 20.2788 19.3069L20.8432 18.4752C22.1204 18.3861 22.9224 17.5841 22.9224 16.4257V12.7128C22.9225 11.4357 21.972 9.92084 20.6056 9.92084ZM4.80356 17.3466H3.25902C2.61942 17.331 2.11353 16.7999 2.12911 16.1603C2.12939 16.1498 2.12979 16.1393 2.1303 16.1287V12.4159C2.1303 11.7327 2.60554 11.1089 3.25902 11.1089H4.80356V17.3466ZM13.9818 22.2476C13.6526 22.6045 13.1901 22.8089 12.7046 22.812C11.7382 22.7966 10.954 22.0255 10.9224 21.0595C10.922 20.0916 11.7063 19.3067 12.6742 19.3063C13.6421 19.3059 14.427 20.0902 14.4274 21.0581C14.4274 21.0585 14.4274 21.059 14.4274 21.0595C14.4521 21.5005 14.2904 21.9316 13.9818 22.2476ZM21.7343 16.4258C21.7343 17.2278 20.962 17.3466 20.6056 17.3466H19.3581V11.109H20.6056C21.2591 11.109 21.7343 12.0298 21.7343 12.7129V16.4258Z" fill="black"/>
</svg>
